Coordinates
version=1
nRows=6
nColumns=63
inDegrees=yes

Units are S.I. units (second, meters, Newtons, ...)
If the header above contains a line with 'inDegrees', this indicates whether rotational values are in degrees (yes) or radians (no).

endheader
time	pelvis_tilt	pelvis_list	pelvis_rotation	pelvis_tx	pelvis_ty	pelvis_tz	hip_flexion_r	hip_adduction_r	hip_rotation_r	knee_angle_r	knee_angle_r_beta	ankle_angle_r	subtalar_angle_r	mtp_angle_r	hip_flexion_l	hip_adduction_l	hip_rotation_l	knee_angle_l	knee_angle_l_beta	ankle_angle_l	subtalar_angle_l	mtp_angle_l	L5_S1_Flex_Ext	L5_S1_Lat_Bending	L5_S1_axial_rotation	L4_L5_Flex_Ext	L4_L5_Lat_Bending	L4_L5_axial_rotation	L3_L4_Flex_Ext	L3_L4_Lat_Bending	L3_L4_axial_rotation	L2_L3_Flex_Ext	L2_L3_Lat_Bending	L2_L3_axial_rotation	L1_L2_Flex_Ext	L1_L2_Lat_Bending	L1_L2_axial_rotation	L1_T12_Flex_Ext	L1_T12_Lat_Bending	L1_T12_axial_rotation	Abs_r3	Abs_r2	Abs_r1	Abs_t1	Abs_t2	neck_flexion	neck_bending	neck_rotation	arm_flex_r	arm_add_r	arm_rot_r	elbow_flex_r	pro_sup_r	wrist_flex_r	wrist_dev_r	arm_flex_l	arm_add_l	arm_rot_l	elbow_flex_l	pro_sup_l	wrist_flex_l	wrist_dev_l
1.218182	2.625807	-6.366675	94.644113	0.296691	0.898597	0.483274	2.570205	3.602277	-6.722681	14.447153	0.252150	29.635398	-6.515311	0.000000	3.084750	-5.445906	-5.431493	13.995377	0.244265	37.885549	7.812000	0.000000	0.115962	0.240858	-0.348155	0.215353	0.320340	-0.369915	0.190514	0.585621	-0.369915	0.132533	0.585621	-0.304636	0.107682	0.491157	-0.282876	0.066261	0.373088	-0.261117	0.828304	2.724628	-1.936336	0.000000	0.000000	9.017936	-1.307127	-6.027849	69.407054	-41.786503	-15.032314	139.743074	73.436982	7.397981	12.473070	70.324301	-40.822564	-2.074058	140.124204	87.838204	1.918019	18.673720
1.236364	2.372287	-6.663452	94.440838	0.297119	0.898360	0.483446	2.409456	3.278508	-7.018389	13.870236	0.242081	29.389742	-5.490121	0.000000	3.209890	-5.220136	-5.947549	13.870646	0.242088	37.313426	8.135066	0.000000	0.109268	0.191894	-0.368803	0.202922	0.255220	-0.391854	0.179517	0.466572	-0.391854	0.124883	0.466572	-0.322703	0.101466	0.391311	-0.299653	0.062436	0.297244	-0.276603	0.780491	2.170748	-2.051174	0.000000	0.000000	10.725657	-0.410695	-6.131259	71.639745	-41.585910	-15.483238	138.165242	72.605885	7.635898	12.422637	73.050683	-41.439914	-1.502337	137.440254	87.734742	1.935117	18.103608
1.254545	2.104321	-6.938295	94.316550	0.297394	0.898190	0.483506	2.164439	2.940136	-7.431382	13.232652	0.230953	29.052720	-4.422761	0.000000	3.291301	-4.981288	-6.436957	13.674146	0.238659	36.735815	8.533470	0.000000	0.101298	0.143753	-0.421617	0.188120	0.191192	-0.447968	0.166422	0.349522	-0.447968	0.115773	0.349522	-0.368915	0.094065	0.293142	-0.342564	0.057882	0.222674	-0.316213	0.723559	1.626167	-2.344906	0.000000	0.000000	12.573600	0.417499	-6.010335	74.106445	-41.339134	-15.626253	136.116417	72.307010	7.483718	12.078867	76.110625	-42.139614	-0.651234	134.300857	87.662119	1.646830	17.184704
1.272727	1.828531	-7.207528	94.280408	0.297536	0.898037	0.483428	1.880334	2.587935	-7.986052	12.578277	0.219532	28.682410	-3.292084	0.000000	3.366787	-4.734147	-6.897456	13.444887	0.234658	36.210900	9.025628	0.000000	0.094944	0.096079	-0.502401	0.176320	0.127785	-0.533801	0.155983	0.233606	-0.533801	0.108511	0.233606	-0.439601	0.088165	0.195924	-0.408201	0.054251	0.148826	-0.376801	0.678174	1.086863	-2.794203	0.000000	0.000000	14.523323	1.164308	-5.716344	76.642501	-41.098303	-15.578516	133.696270	72.513779	7.161364	11.646024	79.432350	-42.881021	0.430380	130.830569	87.633041	1.402864	16.240883
1.290909	1.559698	-7.451450	94.306275	0.297561	0.897917	0.483203	1.551055	2.245651	-8.650637	11.903792	0.207760	28.285099	-2.140393	0.000000	3.408056	-4.489288	-7.283487	13.168565	0.229835	35.755907	9.508088	0.000000	0.086710	0.051997	-0.597213	0.161030	0.069156	-0.634539	0.142456	0.126426	-0.634539	0.099101	0.126426	-0.522561	0.080519	0.106033	-0.485235	0.049546	0.080544	-0.447910	0.619363	0.588204	-3.321518	0.000000	0.000000	16.547568	1.774954	-5.223444	79.112175	-40.911225	-15.291842	130.929296	73.491260	6.270577	10.782127	82.939524	-43.648541	1.880051	127.078618	87.651227	0.739769	14.950974
1.309091	1.315337	-7.698960	94.395081	0.297485	0.897790	0.482875	1.238789	1.927866	-9.435522	11.237544	0.196132	27.891414	-0.971769	0.000000	3.476802	-4.264484	-7.587067	12.898471	0.225121	35.399278	9.977794	0.000000	0.080573	0.013233	-0.700176	0.149632	0.017600	-0.743937	0.132374	0.032175	-0.743937	0.092087	0.032175	-0.612654	0.074820	0.026985	-0.568893	0.046039	0.020498	-0.525132	0.575526	0.149694	-3.894169	0.000000	0.000000	18.583349	2.271815	-4.535111	81.433490	-40.801642	-14.785227	127.853935	75.023393	5.083069	9.614977	86.497316	-44.389130	3.680693	123.129540	87.711237	-0.494226	13.230620
